<svg xmlns="http://www.w3.org/2000/svg" viewBox="0 0 750 500">
    <g id="BACKGROUND">
        <rect width="750" height="500" fill="#fff"/>
        <path d="M720.62,284.24A179.2,179.2,0,0,0,541.42,105c-3.65,0-7.28.12-10.88.34a214.15,214.15,0,0,0-164.76-77.1c-101.11,0-185.87,69.92-208.61,164A141.89,141.89,0,0,0,94.74,428.92H647.17A179,179,0,0,0,720.62,284.24Z"
              fill="#d1f4f5"/>
    </g>
    <g id="OBJECT">
        <path d="M712,444.83h0a3.16,3.16,0,0,0-3.17-3.16h-22a3.16,3.16,0,0,1-3.16-3.17h0a3.17,3.17,0,0,0-3.17-3.17h-5.87a3.16,3.16,0,0,1-3.17-3.16h0a3.17,3.17,0,0,0-3.17-3.17H81.71a3.17,3.17,0,0,0-3.17,3.17h0a3.16,3.16,0,0,1-3.17,3.16H69.5a3.17,3.17,0,0,0-3.17,3.17h0a3.16,3.16,0,0,1-3.16,3.17h-22A3.16,3.16,0,0,0,38,444.83h0A3.17,3.17,0,0,0,41.15,448h200a3.16,3.16,0,0,1,3.16,3.17h0a3.15,3.15,0,0,1-3.16,3.16H129.65a3.17,3.17,0,0,0-3.17,3.17h0a3.17,3.17,0,0,0,3.17,3.17H675.2a3.16,3.16,0,0,0,3.16-3.17h0a3.16,3.16,0,0,0-3.16-3.17H567.69a3.16,3.16,0,0,1-3.16-3.16h0a3.17,3.17,0,0,1,3.16-3.17H708.85A3.17,3.17,0,0,0,712,444.83Z"
              fill="#9ee6e0"/>
        <path d="M108.73,460.67H83.07a3.17,3.17,0,0,1-3.17-3.17h0a3.17,3.17,0,0,1,3.17-3.17h25.66a3.17,3.17,0,0,1,3.17,3.17h0A3.17,3.17,0,0,1,108.73,460.67Z"
              fill="#9ee6e0"/>
        <polygon points="442.91 340.77 437.99 340.77 436.68 352.56 441.91 349.74 442.91 340.77" fill="#422c4f"/>
        <polygon points="436.68 352.56 428.33 427.44 433.25 427.44 441.91 349.74 436.68 352.56" fill="#99a3b0"/>
        <polygon points="479.58 351.25 471.08 427.44 476 427.44 484.81 348.43 479.58 351.25" fill="#99a3b0"/>
        <polygon points="485.66 340.77 480.75 340.77 479.58 351.25 484.81 348.43 485.66 340.77" fill="#422c4f"/>
        <polygon points="504.16 340.77 499.25 340.77 500.45 351.53 505.08 349.02 504.16 340.77" fill="#422c4f"/>
        <polygon points="513.83 427.44 505.08 349.02 500.45 351.53 508.91 427.44 513.83 427.44" fill="#99a3b0"/>
        <polygon points="546.92 340.77 542 340.77 543.12 350.81 547.75 348.3 546.92 340.77" fill="#422c4f"/>
        <polygon points="556.58 427.44 547.75 348.3 543.12 350.81 551.66 427.44 556.58 427.44" fill="#99a3b0"/>
        <path d="M434.45,340.77h0a27.3,27.3,0,0,1,24.79-15.85h32.54l17.59-114.53,24.72-20h15.66a32,32,0,0,1,31.63,36.86l-14.83,96.55a20,20,0,0,1-19.77,17Z"
              fill="#797c99"/>
        <path d="M418.8,340.77h0a27.32,27.32,0,0,1,24.79-15.85h32.54l15-97.65a43.48,43.48,0,0,1,43-36.87h0a32,32,0,0,1,31.63,36.86L552.55,313a14,14,0,0,1-13.83,11.88H518.19a27.3,27.3,0,0,0-24.79,15.85H418.8Z"
              fill="#495375"/>
        <path d="M465.53,190.48A17.1,17.1,0,0,0,489,181.33h-3.87a4,4,0,0,1-4-4V164l-17.25,4.5v9.67a4,4,0,0,1-4,4h-2.41A17.39,17.39,0,0,0,465.53,190.48Z"
              fill="#eba58e"/>
        <path d="M481.17,164c-2.92,10.42-8.92,14.75-17.25,11.83V168.5Z" fill="#422c4f"/>
        <path d="M447.92,149c-6.75-5.08-4.5-15.5-3.5-17a17.69,17.69,0,0,1-6.23-5.89,9.9,9.9,0,0,1-1-8.17,7,7,0,0,1,6.4-4.73c3.31.06,5.93,2.76,9.05,3.84s6.63.48,9.87-.36,6.5-1.9,9.83-1.65A12.72,12.72,0,0,1,484,125.68a6.76,6.76,0,0,1,8.12,2.22c1.59,2.4,1.36,5.54,1,8.39-.69,5.17-3.49,17.65-4.73,22.71L479,161.33Z"
              fill="#422c4f"/>
        <path d="M485.53,151.67a6.9,6.9,0,0,1,3.82-3.09,4.48,4.48,0,0,1,4.59,1.22,4.82,4.82,0,0,1,.89,4,10.53,10.53,0,0,1-1.7,3.81,12.42,12.42,0,0,1-2.44,2.91,5.9,5.9,0,0,1-3.46,1.43,3.88,3.88,0,0,1-3.33-1.51c-.84-1.17-.61-2.82-.23-4.13A18.26,18.26,0,0,1,485.53,151.67Z"
              fill="#eba58e"/>
        <path d="M487.06,159.93a1.93,1.93,0,0,1-1.54-.68c-.13-.19-.39-.8.07-2.41a16.79,16.79,0,0,1,1.63-4.11,5,5,0,0,1,2.68-2.23,2.8,2.8,0,0,1,.77-.1,2.31,2.31,0,0,1,1.75.69,2.87,2.87,0,0,1,.44,2.32,9,9,0,0,1-1.4,3.08,10.18,10.18,0,0,1-2,2.45,3.93,3.93,0,0,1-2.27,1Z"
              fill="#de7274"/>
        <path d="M482.42,147.83a12.2,12.2,0,0,1-6.94-12.73,40.41,40.41,0,0,1-25.89-.56,19.32,19.32,0,0,0-2.92,10.21v9.33a19.41,19.41,0,0,0,19.41,19.42h0a19.42,19.42,0,0,0,18.66-14.07,11.13,11.13,0,0,1-1.4-1.8A11.36,11.36,0,0,1,482.42,147.83Z"
              fill="#eba58e"/>
        <path d="M451.25,143.26a5.85,5.85,0,0,0-3.83,3.83l8.46-2.12A4.57,4.57,0,0,0,451.25,143.26Z" fill="#422c4f"/>
        <ellipse cx="452.06" cy="150.09" rx="1.29" ry="1.71" fill="#422c4f"/>
        <path d="M469.65,144.18A7.09,7.09,0,0,1,474.7,148l-11.16-2.12A7.1,7.1,0,0,1,469.65,144.18Z" fill="#422c4f"/>
        <path d="M466.87,151a1.71,1.71,0,1,0,1.71-1.71A1.7,1.7,0,0,0,466.87,151Z" fill="#422c4f"/>
        <path d="M460.82,160.69h0c-.88-.08-1.77-.19-2.68-.31a3.34,3.34,0,0,1-2.29-1.41,3.22,3.22,0,0,1-.47-2.56,54.8,54.8,0,0,1,2.83-8.45.24.24,0,1,1,.45.19,55.27,55.27,0,0,0-2.79,8.38,2.63,2.63,0,0,0,.39,2.16,2.79,2.79,0,0,0,1.94,1.19c.9.12,1.79.23,2.66.31a.25.25,0,0,1,0,.5Z"
              fill="#422c4f"/>
        <path d="M468.61,161.7l-12.43,1.46a7.63,7.63,0,0,0,6.53,3.06C465.21,166,467.45,163.93,468.61,161.7Z"
              fill="#fff"/>
        <path d="M483.33,281.83h-36.5l-56.41,15.41a23,23,0,0,0-15.33,30.63L400,391l24.5-9.62L415,329h21.83l46.5-30.29Z"
              fill="#5088ba"/>
        <polygon points="427.14 380.35 397.35 392.04 400.58 402.69 430.38 391 427.14 380.35" fill="#6ca7d3"/>
        <path d="M398.52,428.92a13.11,13.11,0,0,0-.71,4.25h40.36l-1.3-4.25Z" fill="#bd6c67"/>
        <path d="M425.82,392.79l-19.65,7.71L411,413.38a5,5,0,0,1-2.5,6.28l-3.22,1.55a13.24,13.24,0,0,0-6.8,7.71h38.35Z"
              fill="#8c404c"/>
        <path d="M423.4,319.46l1.85,9.5h11.58l46.5-30.29v-9.79l-45.92,9.51A18,18,0,0,0,423.4,319.46Z" fill="#457ba3"/>
        <path d="M500.75,281.83l-47.6,12.77a28,28,0,0,0-20.56,30.29L439.5,384H468l2.25-58.75H491a37,37,0,0,0,37-37v-16Z"
              fill="#5088ba"/>
        <rect x="436.83" y="384" width="33.5" height="10.17" fill="#6ca7d3"/>
        <path d="M465.83,394.17H441.67v17A14.62,14.62,0,0,1,434.08,424a14.6,14.6,0,0,0-6.87,8.33h38.62Z"
              fill="#a64f5a"/>
        <path d="M427.21,432.33a14.65,14.65,0,0,0-.71,4.49v.35h39.33v-4.84Z" fill="#df8d6d"/>
        <path d="M470.25,325.25l.61-15.92h0a13.39,13.39,0,0,1,2.1,15.52l-.21.4Z" fill="#457ba3"/>
        <path d="M465.83,384.25a.25.25,0,0,1-.25-.25V322.75a.25.25,0,0,1,.25-.25.25.25,0,0,1,.25.25V384A.25.25,0,0,1,465.83,384.25Z"
              fill="#422c4f"/>
        <path d="M422.08,368.27a.26.26,0,0,1-.25-.21L411,308.33a.25.25,0,0,1,.49-.09L422.32,368a.24.24,0,0,1-.2.29Z"
              fill="#422c4f"/>
        <path d="M416.67,380.59a.25.25,0,0,1-.25-.19l-15.5-63.84a.25.25,0,0,1,.49-.12l15.5,63.85a.25.25,0,0,1-.19.3Z"
              fill="#422c4f"/>
        <path d="M399.24,295.08a.25.25,0,0,1-.06-.49l47.59-13a.24.24,0,0,1,.3.18.24.24,0,0,1-.17.3l-47.59,13Z"
              fill="#422c4f"/>
        <path d="M436.52,358.75a.25.25,0,0,1-.25-.22l-3.93-33.61a28.4,28.4,0,0,1,20.74-30.56l39.57-10.61a.24.24,0,0,1,.3.17.24.24,0,0,1-.17.31l-39.57,10.61a27.9,27.9,0,0,0-20.37,30l3.93,33.61a.26.26,0,0,1-.22.28Z"
              fill="#422c4f"/>
        <path d="M494.93,181.33H489a17.1,17.1,0,0,1-31.53.84H445.17a28,28,0,0,0-26.34,18.49l-11.75,32.53L436.5,241l3.83-13.68,6.5,54.51h36.5L520,253.5Z"
              fill="#fbeed1"/>
        <path d="M494.93,181.33h10a28,28,0,0,1,25.88,17.31l11.85,28.68-28,10.69Z" fill="#fbeed1"/>
        <path d="M483.33,281.83,520,253.5,514.62,238l23.71-9,7.33,21.32a15,15,0,0,1-9.22,19l-35.69,12.51-29.25,7.85Z"
              fill="#eba58e"/>
        <polygon points="538.34 228.97 514.62 238.01 517.12 245.21 538.87 230.54 538.34 228.97" fill="#422c4f"/>
        <path d="M433,285.61l-3.5-33.84,4.89-11.33-24.61-6.54-2.73,9.44a27.09,27.09,0,0,0,.56,16.68l10.72,29.6Z"
              fill="#eba58e"/>
        <polygon points="409.78 233.9 434.39 240.44 431.93 246.14 409.31 235.51 409.78 233.9" fill="#422c4f"/>
        <path d="M504.47,208.81l4,37.84a12,12,0,0,1-2.81,9l-22.31,26.14L520,253.5Z" fill="#f7dd8c"/>
        <path d="M440.33,227.32l-2.74-23L435.32,216a23.24,23.24,0,0,0,3.37,17.22h0Z" fill="#f7dd8c"/>
        <path d="M514.62,238.26a.25.25,0,0,1-.24-.17l-11.7-33.69a.23.23,0,0,1,.15-.31.25.25,0,0,1,.32.15l11.7,33.69a.25.25,0,0,1-.15.32Z"
              fill="#422c4f"/>
        <path d="M511.9,230.63a.26.26,0,0,1-.23-.17.25.25,0,0,1,.14-.32l23.92-9a.25.25,0,0,1,.32.15.25.25,0,0,1-.15.32l-23.91,9Z"
              fill="#422c4f"/>
        <path d="M499.34,269.71a.25.25,0,0,1-.15-.45l27.4-21.17a.25.25,0,0,1,.35,0,.26.26,0,0,1,0,.36l-27.41,21.17A.21.21,0,0,1,499.34,269.71Z"
              fill="#422c4f"/>
        <path d="M444.75,264.64a.27.27,0,0,1-.25-.22l-7.16-60.07a.26.26,0,0,1,.22-.28.26.26,0,0,1,.28.22L445,264.36a.25.25,0,0,1-.22.28Z"
              fill="#422c4f"/>
        <path d="M437.61,237.29h-.07a.24.24,0,0,1-.17-.31l2.72-9.72a.25.25,0,0,1,.48.14l-2.72,9.72A.25.25,0,0,1,437.61,237.29Z"
              fill="#422c4f"/>
        <path d="M438.36,234.61h-.06l-25-6.35a.25.25,0,1,1,.13-.48l25,6.34a.25.25,0,0,1-.06.5Z" fill="#422c4f"/>
        <polygon points="182.82 355 187.74 355 189.05 366.79 183.82 363.96 182.82 355" fill="#422c4f"/>
        <polygon points="189.05 366.79 197.4 441.67 192.49 441.67 183.82 363.96 189.05 366.79" fill="#99a3b0"/>
        <polygon points="146.15 365.48 154.65 441.67 149.73 441.67 140.92 362.65 146.15 365.48" fill="#99a3b0"/>
        <polygon points="140.07 355 144.98 355 146.15 365.48 140.92 362.65 140.07 355" fill="#422c4f"/>
        <polygon points="121.57 355 126.48 355 125.28 365.75 120.65 363.25 121.57 355" fill="#422c4f"/>
        <polygon points="111.9 441.67 120.65 363.25 125.28 365.75 116.82 441.67 111.9 441.67" fill="#99a3b0"/>
        <polygon points="78.81 355 83.73 355 82.61 365.03 77.97 362.53 78.81 355" fill="#422c4f"/>
        <polygon points="69.15 441.67 77.97 362.53 82.61 365.03 74.06 441.67 69.15 441.67" fill="#99a3b0"/>
        <path d="M191.28,355h0a27.3,27.3,0,0,0-24.79-15.86H133.94L116.35,224.62l-24.72-20H76a32,32,0,0,0-31.63,36.86L59.17,338a20,20,0,0,0,19.77,17Z"
              fill="#797c99"/>
        <path d="M206.93,355h0a27.31,27.31,0,0,0-24.79-15.86H149.6l-15-97.64a43.48,43.48,0,0,0-43-36.88h0A32,32,0,0,0,60,241.48l13.18,85.79A14,14,0,0,0,87,339.14h20.53A27.3,27.3,0,0,1,132.33,355h74.6Z"
              fill="#495375"/>
        <path d="M155.75,296.33l-16.53,42.81H222l-14.75,63.67h40l11.33-68a28,28,0,0,0-24.86-32.46l-60.48-6Z"
              fill="#537496"/>
        <path d="M222,339.14l4.72-20.35-6,5.36a6.22,6.22,0,0,0-2.06,4.62h0a6.2,6.2,0,0,1-5.44,6.15l-2.47.3-.66,3.92Z"
              fill="#495375"/>
        <path d="M242.76,427.36a2,2,0,0,1-.2-.21l-.9-1a10.71,10.71,0,0,1-2.59-8.87l2.43-14.47H223.06l-2.33,14.07a22.41,22.41,0,0,1-2.76,7.87,29.4,29.4,0,0,0-3,7.42h22.7A11.73,11.73,0,0,1,242.76,427.36Z"
              fill="#a64f5a"/>
        <path d="M252.32,431l-3.06-.37a10.7,10.7,0,0,1-6.5-3.29,11.73,11.73,0,0,0-5.12,4.81h-22.7a34.74,34.74,0,0,0-.94,5,4,4,0,0,0,4,4.47h43.78A10.72,10.72,0,0,0,252.32,431Z"
              fill="#eca85e"/>
        <polygon points="223.06 402.81 241.5 402.81 241.13 405.08 222.1 408.84 223.06 402.81" fill="#422c4f"/>
        <path d="M192.43,427.36c-.06-.07-.14-.13-.2-.21l-.9-1a10.71,10.71,0,0,1-2.59-8.87l2.34-14.47H172.64l-2.24,14.07a22.41,22.41,0,0,1-2.76,7.87,29.07,29.07,0,0,0-3,7.42h22.69A11.78,11.78,0,0,1,192.43,427.36Z"
              fill="#bd6c67"/>
        <path d="M202,431l-3.06-.37a10.73,10.73,0,0,1-6.5-3.29,11.78,11.78,0,0,0-5.12,4.81H164.62a34.68,34.68,0,0,0-1,5,4,4,0,0,0,4,4.47h43.77A10.72,10.72,0,0,0,202,431Z"
              fill="#f4d071"/>
        <polygon points="172.64 402.81 191.08 402.81 190.72 405.08 171.68 408.84 172.64 402.81" fill="#422c4f"/>
        <path d="M108,296.33l-4.45,11.53A23,23,0,0,0,125,339.14h49.24L159.5,402.81h40L211,333.55a28,28,0,0,0-23.69-32.33l-34.52-4.89Z"
              fill="#6081a8"/>
        <path d="M174.25,339.14,179,318.79l-5.76,5.71a15.27,15.27,0,0,0-4,14.64h5.08Z" fill="#495375"/>
        <path d="M174.25,339.39h-35a.25.25,0,0,1,0-.5h35a.25.25,0,0,1,0,.5Z" fill="#422c4f"/>
        <path d="M161.62,393.91h-.06a.25.25,0,0,1-.18-.3l17.34-74.87a.26.26,0,0,1,.3-.19.25.25,0,0,1,.19.3l-17.34,74.87A.26.26,0,0,1,161.62,393.91Z"
              fill="#422c4f"/>
        <path d="M187.35,301.47h0l-21.5-3.05a.24.24,0,0,1-.22-.28.25.25,0,0,1,.29-.21l21.5,3.05a.24.24,0,0,1,.21.28A.24.24,0,0,1,187.35,301.47Z"
              fill="#422c4f"/>
        <path d="M200.82,395.14h0a.25.25,0,0,1-.21-.28L208.21,349a.26.26,0,0,1,.29-.2.25.25,0,0,1,.21.29l-7.64,45.87A.26.26,0,0,1,200.82,395.14Z"
              fill="#422c4f"/>
        <path d="M188.33,228.5l7,23.27,34.34,40.9L220.48,301,187.4,271.78a31.89,31.89,0,0,1-9.75-15.8l-5.82-22Z"
              fill="#a64f5a"/>
        <path d="M188.33,228.5l-16.5,5.5,5.82,22c0,.12.07.23.1.35l14.43-15Z" fill="#422c4f"/>
        <path d="M168.88,192.59h0a12.51,12.51,0,0,1,12.57,8.8l9.93,32.05-10.13,2.31-6-17.25Z" fill="#f4d071"/>
        <polygon points="175.25 218.5 181.25 235.75 190.01 233.75 172.8 208.53 175.25 218.5" fill="#eca85e"/>
        <path d="M175.31,164.08c3.89-5.55,7.4-11.53,8.83-18.16s.53-14-3.69-19.31-12.15-7.8-18.17-4.7c-7.42-4.86-16.32-8-24.59-4.76a28.46,28.46,0,0,0-17,19.18c-4.42,17.33,8.1,36,2.41,53-2.34,7-7.48,12.59-11.9,18.48s-8.37,12.83-7.67,20.16c.91,9.41,9.77,16.75,19.14,18a27.12,27.12,0,0,0,20.83-6.13c6.64-5.63,10.15-14.19,11.7-22.75s1.37-17.33,1.93-26c.35-5.43,1-10.95,3.28-15.9S170.05,165.47,175.31,164.08Z"
              fill="#422c4f"/>
        <path d="M184.39,232,178,217.5l-9.12-24.91L145,193.77a25,25,0,0,0-23.74,26l.46,10.68h0l-1.32,27a48,48,0,0,1-3.16,14.93L108,296.33h65.24l4.55-30.25.8-8.85a14.64,14.64,0,0,1,3.36-8.08h0A16.4,16.4,0,0,0,184.39,232Z"
              fill="#f4d071"/>
        <path d="M184.39,232.25a.25.25,0,0,1-.23-.15l-6.39-14.5-5-13.71a.24.24,0,0,1,.15-.32.25.25,0,0,1,.32.15l5,13.69,6.39,14.49a.27.27,0,0,1-.13.33Z"
              fill="#422c4f"/>
        <path d="M158.49,249.34a.25.25,0,0,1-.25-.23.26.26,0,0,1,.24-.27A18,18,0,0,0,171.16,242a.25.25,0,0,1,.4.3,18.48,18.48,0,0,1-13.05,7Z"
              fill="#422c4f"/>
        <path d="M144.62,174.75,144,194.38l3.11,3.19a10,10,0,0,0,16.39-3.32h0l-1.75-14.75Z" fill="#bd6c67"/>
        <path d="M156.78,189.71a10.43,10.43,0,0,0,6.07-1l-1.1-9.25-17.13-4.75-.08,2.59a31.82,31.82,0,0,0,3.59,6.62C150.24,186.81,153.27,189.17,156.78,189.71Z"
              fill="#422c4f"/>
        <path d="M177.12,148v10.82a42.55,42.55,0,0,1-2.36,14h0a17.11,17.11,0,0,1-16.16,11.47h0a17.12,17.12,0,0,1-11.49-4.43l-6-5.44a16.81,16.81,0,0,1-5-8.26h0c18.38-8,24.88-21.62,25.13-32.5C173.75,138.75,177.12,148,177.12,148Z"
              fill="#bd6c67"/>
        <path d="M158.37,148.6a8.06,8.06,0,0,0-5.71,4.33l12.61-2.39A8,8,0,0,0,158.37,148.6Z" fill="#422c4f"/>
        <path d="M161.51,156.32a1.93,1.93,0,1,1-1.93-1.93A1.92,1.92,0,0,1,161.51,156.32Z" fill="#422c4f"/>
        <path d="M174.19,148.6c1.56.49,2.79,2.15,3.45,4.33L170,150.54C171.12,148.91,172.64,148.11,174.19,148.6Z"
              fill="#422c4f"/>
        <path d="M172.3,156.32c0,1.06.52,1.92,1.16,1.92s1.16-.86,1.16-1.92-.52-1.93-1.16-1.93S172.3,155.25,172.3,156.32Z"
              fill="#422c4f"/>
        <path d="M167.91,167.37a15.12,15.12,0,0,1-1.53-.1.23.23,0,0,1-.22-.27.24.24,0,0,1,.27-.22,7.58,7.58,0,0,0,2.85-.08,2.4,2.4,0,0,0,1.79-1.79,3.84,3.84,0,0,0-.55-2l-.08-.18a18.06,18.06,0,0,1-1.66-8.69.25.25,0,0,1,.26-.24.26.26,0,0,1,.24.27,17.57,17.57,0,0,0,1.61,8.45l.08.18a4.12,4.12,0,0,1,.59,2.33,2.91,2.91,0,0,1-2.14,2.2A5.22,5.22,0,0,1,167.91,167.37Z"
              fill="#422c4f"/>
        <path d="M170.39,170.45l-12.81,1.69a6.86,6.86,0,0,0,6.69,3.67A7.72,7.72,0,0,0,170.39,170.45Z" fill="#fff"/>
        <path d="M124.75,251.77l22.5-3.52,3.08,26.25,54.34-16.67,3.16,14.34-53.06,24.19a20,20,0,0,1-28.26-16.93Z"
              fill="#bd6c67"/>
        <polygon points="147.25 248.25 124.75 251.77 125.34 261.01 147.54 250.68 147.25 248.25" fill="#422c4f"/>
        <path d="M150.42,247.75,123.05,252l-.38-3.21,15.62-2.36a9,9,0,0,0,7.59-9.94l-2.38-20.48a15.44,15.44,0,0,0-7.36-11.43h0l.34.13a15.43,15.43,0,0,1,9.86,12.41Z"
              fill="#eca85e"/>
        <path d="M123,252.29a.25.25,0,0,1-.24-.21.25.25,0,0,1,.21-.29l27.13-4.25-4-30.35A15.17,15.17,0,0,0,136.39,205l-.33-.12a.25.25,0,1,1,.17-.47l.33.13a15.61,15.61,0,0,1,10,12.61l4.08,30.59a.26.26,0,0,1-.21.28l-27.38,4.29Z"
              fill="#422c4f"/>
        <path d="M139.22,278.16A.24.24,0,0,1,139,278a.24.24,0,0,1,.16-.31l57.42-17.61a.25.25,0,0,1,.31.16.27.27,0,0,1-.17.32L139.3,278.15Z"
              fill="#422c4f"/>
        <path d="M359.69,159.83V183.5a13,13,0,0,1-13,13H344.5l-2,3.17H317l8.67-13.5Z" fill="#f2c9ad"/>
        <path d="M359.75,164.38l-5.87,8.12v8.75a9,9,0,0,1-9,9H329.21a9,9,0,0,1-7.63-4.22c-16.17-25.69-12-45.14,5.92-42.53C342.88,121.25,382.12,147.75,359.75,164.38Z"
              fill="#6a3649"/>
        <path d="M357.38,167.66l-3.5,4.84V181a2.43,2.43,0,0,0,2.8,1.75,5.13,5.13,0,0,0,2.55-2.47,13.37,13.37,0,0,0,1.8-5.13,10.27,10.27,0,0,0-.74-5.6A2.77,2.77,0,0,0,357.38,167.66Z"
              fill="#f2c9ad"/>
        <path d="M356.18,183.07a2.44,2.44,0,0,1-.86-.17.24.24,0,0,1-.14-.32.25.25,0,0,1,.32-.14,1.78,1.78,0,0,0,1.11.07,4.85,4.85,0,0,0,2.4-2.35,13.34,13.34,0,0,0,1.77-5,10.16,10.16,0,0,0-.71-5.46,2.82,2.82,0,0,0-1.45-1.57.25.25,0,0,1-.15-.32.26.26,0,0,1,.33-.15,3.31,3.31,0,0,1,1.72,1.82,10.44,10.44,0,0,1,.75,5.75,13.54,13.54,0,0,1-1.83,5.22,5.2,5.2,0,0,1-2.69,2.58A2.12,2.12,0,0,1,356.18,183.07Z"
              fill="#422c4f"/>
        <path d="M324.82,429.18A22.55,22.55,0,0,1,321,422.5l-.67-1.83H299.56L298,437.17h31.11A22.4,22.4,0,0,0,324.82,429.18Z"
              fill="#454f6b"/>
        <path d="M329.06,437.17H298l-.44,4.5H330l-.32-1.88A21.23,21.23,0,0,0,329.06,437.17Z" fill="#fff"/>
        <polygon points="320.33 420.67 299.56 420.67 298.94 427.03 320.33 420.67" fill="#422c4f"/>
        <polygon points="338.03 320 330.03 420.67 293.37 420.67 301.21 339.67 338.03 320" fill="#984058"/>
        <polygon points="334.03 370.33 299.22 360.24 301.21 339.67 338.03 320 334.03 370.33" fill="#472948"/>
        <path d="M390.06,430.29h0a19.42,19.42,0,0,1-8.37-7.83l-1-1.79H362l-3.54,16.5h39.35A19.38,19.38,0,0,0,390.06,430.29Z"
              fill="#454f6b"/>
        <path d="M397.81,437.17H358.46l-1,4.5H400l-.06-.17A19.16,19.16,0,0,0,397.81,437.17Z" fill="#fff"/>
        <polygon points="380.67 420.67 362 420.67 360.64 427.03 380.67 420.67" fill="#422c4f"/>
        <path d="M340.18,296.33,380.05,314a21,21,0,0,1,12.44,20.86l-6.82,85.83H349l7.85-81L333.32,337H274.89V296.33Z"
              fill="#984058"/>
        <path d="M356.85,339.67H382.5l-1.6,1.18A27.56,27.56,0,0,1,356.33,345h0Z" fill="#472948"/>
        <path d="M382.5,410.92H353.33a.26.26,0,0,1-.25-.25.25.25,0,0,1,.25-.25H382.5a.25.25,0,0,1,.25.25A.25.25,0,0,1,382.5,410.92Z"
              fill="#422c4f"/>
        <path d="M327.11,410.92H298a.25.25,0,0,1-.25-.25.25.25,0,0,1,.25-.25h29.16a.25.25,0,0,1,.25.25A.25.25,0,0,1,327.11,410.92Z"
              fill="#422c4f"/>
        <path d="M380.67,416.75h0a.25.25,0,0,1-.23-.27l6.16-70.23a.25.25,0,1,1,.5,0l-6.16,70.23A.26.26,0,0,1,380.67,416.75Z"
              fill="#422c4f"/>
        <path d="M408.62,225.25l-8.95-15.92h0a4.78,4.78,0,0,1,5.6,1.2l2.73,3.14Z" fill="#eba58e"/>
        <path d="M404.62,230.62l4-5.37-2-11.75c-.18-9.31,3.86-14.18,5.94-16.06a1.85,1.85,0,0,1,2.31-.17h0a1.87,1.87,0,0,1,.47,2.61,21.08,21.08,0,0,0-3.37,9.36,22.85,22.85,0,0,1,7.74-8.81,1.85,1.85,0,0,1,2.14.07l5.57,4.22a1.85,1.85,0,0,1,.3,2.67,27.19,27.19,0,0,0-4.37,8.1c2,7.88-1.76,13.12-3.38,14l-6.5,10.38Z"
              fill="#f2c9ad"/>
        <path d="M272,223.5h0a34.61,34.61,0,0,1,33.76-27h33.76a34,34,0,0,1,31.55,21.32L384,250l18.67-21.67c13.33.67,15.66,14.34,15.66,14.34L392.7,275.43a16,16,0,0,1-27.21-3.33L354,246.42l-10.5,54.25c-15.83,9.33-62.17,7-71.5,2Z"
              fill="#6ca8bc"/>
        <polygon points="354 246.42 358.71 222.09 359.69 259.14 354 246.42" fill="#468097"/>
        <path d="M384,250l5.78,14.39.55-7.63a12.3,12.3,0,0,0-3.74-9.77h0Z" fill="#468097"/>
        <path d="M416.42,210.93l-.12,0a.25.25,0,0,1-.1-.34,24.85,24.85,0,0,1,6.51-7.83.25.25,0,0,1,.35,0,.24.24,0,0,1,0,.35,24.59,24.59,0,0,0-6.38,7.67A.25.25,0,0,1,416.42,210.93Z"
              fill="#422c4f"/>
        <path d="M420.6,212.05a.22.22,0,0,1-.13,0,.24.24,0,0,1-.08-.34,27.09,27.09,0,0,1,4.95-6,.24.24,0,0,1,.35,0,.25.25,0,0,1,0,.35,26.89,26.89,0,0,0-4.86,5.93A.25.25,0,0,1,420.6,212.05Z"
              fill="#422c4f"/>
        <path d="M407.08,227.57a.23.23,0,0,1-.15,0,.25.25,0,0,1-.05-.35l1.48-2-1.52-8.95a.24.24,0,0,1,.2-.29.24.24,0,0,1,.29.2l1.54,9.06a.26.26,0,0,1,0,.19l-1.55,2.07A.22.22,0,0,1,407.08,227.57Z"
              fill="#422c4f"/>
        <path d="M345.87,288.69h-.05a.25.25,0,0,1-.2-.3L358.46,222a.27.27,0,0,1,.3-.2.25.25,0,0,1,.19.3l-12.84,66.35A.25.25,0,0,1,345.87,288.69Z"
              fill="#422c4f"/>
        <path d="M389.78,264.64a.25.25,0,0,1-.23-.16l-15.73-39.14A.25.25,0,0,1,374,225a.26.26,0,0,1,.33.14L390,264.29a.25.25,0,0,1-.13.33Z"
              fill="#422c4f"/>
        <path d="M384,250.25a.23.23,0,0,1-.16-.06.24.24,0,0,1,0-.35l11-12.72a.25.25,0,1,1,.37.33l-10.95,12.71A.25.25,0,0,1,384,250.25Z"
              fill="#422c4f"/>
        <path d="M326,295.61h-.08a48.29,48.29,0,0,1-19.55-11.43.25.25,0,1,1,.34-.36A47.93,47.93,0,0,0,326,295.12a.25.25,0,0,1,.16.32A.25.25,0,0,1,326,295.61Z"
              fill="#422c4f"/>
        <path d="M319.9,224.27a.25.25,0,0,1-.09-.49l9.66-3.37a.26.26,0,0,1,.32.16.25.25,0,0,1-.16.32L320,224.25Z"
              fill="#422c4f"/>
        <path d="M342.86,350.48A18,18,0,0,0,325.08,335H320a8,8,0,0,1-7.83-6.46l-16.48-83.78a52.38,52.38,0,0,0-51.39-42.26H227.7l2.65,2.64A38,38,0,0,0,207,247.83l17.43,88.61A23,23,0,0,0,247,355H343.5Z"
              fill="#495375"/>
        <path d="M207.85,336.44l-17.43-88.61A38,38,0,0,1,227.7,202.5h0a52.38,52.38,0,0,1,51.39,42.26l18,91.68A23,23,0,0,0,319.69,355H230.42A23,23,0,0,1,207.85,336.44Z"
              fill="#797c99"/>
        <polygon points="235.33 355 230.42 355 229.1 366.79 234.33 363.96 235.33 355" fill="#422c4f"/>
        <polygon points="229.1 366.79 220.75 441.67 225.67 441.67 234.33 363.96 229.1 366.79" fill="#99a3b0"/>
        <polygon points="272 365.48 263.5 441.67 268.42 441.67 277.23 362.65 272 365.48" fill="#99a3b0"/>
        <polygon points="278.08 355 273.17 355 272 365.48 277.23 362.65 278.08 355" fill="#422c4f"/>
        <polygon points="296.59 355 291.67 355 292.87 365.75 297.51 363.25 296.59 355" fill="#422c4f"/>
        <polygon points="306.25 441.67 297.51 363.25 292.87 365.75 301.34 441.67 306.25 441.67" fill="#99a3b0"/>
        <polygon points="339.34 355 334.42 355 335.54 365.03 340.18 362.53 339.34 355" fill="#422c4f"/>
        <polygon points="349 441.67 340.18 362.53 335.54 365.03 344.09 441.67 349 441.67" fill="#99a3b0"/>
        <path d="M596.34,209.65l8.87-11.37a11.78,11.78,0,0,1,9.29-4.53l-1.94-.34a4,4,0,0,1-3.08-2.62l-5.1-14.6-15,8,2.21,11.59a4.06,4.06,0,0,1-.57,2.92l-9.19,14.26.17.08A11.79,11.79,0,0,0,596.34,209.65Z"
              fill="#f2c9ad"/>
        <path d="M625.67,304.27,614.5,193.75a11.78,11.78,0,0,0-9.29,4.53l-8.87,11.37A11.79,11.79,0,0,1,582,213l-.17-.08-14.95,23.19a9.84,9.84,0,0,0-.45,10.07,18,18,0,0,0,3,4A17.66,17.66,0,0,1,574,265.92L569.83,288Z"
              fill="#e68799"/>
        <path d="M590.75,191.61c12.13-3.83,14-11.44,13.63-15.42l-15,8Z" fill="#422c4f"/>
        <path d="M608.11,216.1,606.36,266a11,11,0,0,1-10.59,10.6l-23.94.89-2,10.53,55.84,16.27-8.91-88.17Z"
              fill="#e36b85"/>
        <path d="M592.36,253.68h-.06a22.67,22.67,0,0,1-12.58-8.56.25.25,0,1,1,.4-.29,22.15,22.15,0,0,0,12.3,8.36.25.25,0,0,1-.06.5Z"
              fill="#422c4f"/>
        <path d="M619.23,140.88A24.31,24.31,0,0,1,641,123.17c3.7-.18,7.68.65,10.27,3.3,2.18,2.25,3.07,5.47,3.34,8.59.5,5.54-.65,11.07-1.91,16.49s-2.63,10.86-2.61,16.42,1.62,11.33,5.54,15.27c-10.21,1.7-20.94-3.38-27.05-11.74S616.65,150.9,619.23,140.88Z"
              fill="#eba25d"/>
        <path d="M578.29,163.21a24.92,24.92,0,0,1-6.33-14,19.24,19.24,0,0,1,1.45-10.12,13.41,13.41,0,0,1,7.25-7,10.32,10.32,0,0,1,9.82,1.33,23.05,23.05,0,0,1,31,7.35c3.93,6.11,4.71,14,2.77,21-1.85,6.7-6.47,13-13.06,15.2-5.67,1.9-12,.58-17.32-2.23S582.33,167.62,578.29,163.21Z"
              fill="#eba25d"/>
        <path d="M611.15,177.19a.25.25,0,0,1-.08-.49c5.95-2,10.89-7.76,12.9-15s1-15-2.74-20.8a22.71,22.71,0,0,0-13.89-9.77.25.25,0,1,1,.11-.48,23.26,23.26,0,0,1,14.2,10,26.67,26.67,0,0,1,2.81,21.2c-2.06,7.43-7.13,13.32-13.23,15.37Z"
              fill="#422c4f"/>
        <path d="M585.33,144.83h0A27.15,27.15,0,0,0,575.66,161l-.49,2.67-5.5,8.83h5.83l.82,8.65a8.49,8.49,0,0,0,5.57,7.18h0a8.51,8.51,0,0,0,6.37-.24L599.54,183a7,7,0,0,0,4.13-6.38v-5.31c-2-.85-4.59-2.29-5.48-4.23a8.87,8.87,0,0,1-.36-6.27C592.35,157.4,587.55,150.91,585.33,144.83Z"
              fill="#f2c9ad"/>
        <path d="M606.35,165.13a5.6,5.6,0,0,1,3.34-.72,3.6,3.6,0,0,1,2.79,1.84,4.88,4.88,0,0,1,.17,3.29,13.45,13.45,0,0,1-2.38,5.18,7.63,7.63,0,0,1-3.17,2.63,4.19,4.19,0,0,1-4-.35c-1.9-1.41-1.31-4.25-.9-6.22A8.3,8.3,0,0,1,606.35,165.13Z"
              fill="#f2c9ad"/>
        <path d="M605.35,175.69a1.79,1.79,0,0,1-1.05-.3c-.88-.65-.43-2.79-.13-4.2a6.35,6.35,0,0,1,3.12-4.3,4,4,0,0,1,1.84-.52l.31,0a1.68,1.68,0,0,1,1.26.76,3.16,3.16,0,0,1,0,2,11.46,11.46,0,0,1-2,4.41,5.75,5.75,0,0,1-2.32,2A2.86,2.86,0,0,1,605.35,175.69Z"
              fill="#eba58e"/>
        <path d="M584.23,157.72a7.12,7.12,0,0,1,5,3.83l-11.16-2.11A7.14,7.14,0,0,1,584.23,157.72Z" fill="#422c4f"/>
        <circle cx="583.16" cy="164.55" r="1.71" fill="#422c4f"/>
        <path d="M587.66,177.35a22.85,22.85,0,0,0-10,0,5.33,5.33,0,0,0,2.23,2.84,4.47,4.47,0,0,0,3.24.68C584.83,180.56,586.45,178.58,587.66,177.35Z"
              fill="#fff"/>
        <path d="M550.64,282.41l65.55,19.09a17,17,0,0,0,21.72-17.3l-2-34L613,253.5l1.75,29.38-48.23-6.08a17,17,0,0,0-11.59,2.74l-4.29,2.87"
              fill="#f2c9ad"/>
        <path d="M613,253.5l22.94-3.28.52,8.87c-9.88,2.41-23.17-.68-23.17-.68Z" fill="#422c4f"/>
        <path d="M614.5,193.75h0a20.06,20.06,0,0,1,19.88,17.34L640,252c-11.5,5.25-29.15,5-29.15,5l-2.74-40.9A34.33,34.33,0,0,1,614,194.45Z"
              fill="#e68799"/>
        <path d="M614.5,193.75" fill="none" stroke="#422c4f" stroke-linecap="round" stroke-linejoin="round"
              stroke-width="0.5"/>
        <path d="M610.43,251a.25.25,0,0,1-.25-.23l-2.32-34.65a34.44,34.44,0,0,1,1.42-12.36.25.25,0,0,1,.48.14,33.72,33.72,0,0,0-1.4,12.18l2.32,34.66a.24.24,0,0,1-.23.26Z"
              fill="#422c4f"/>
        <path d="M638.88,244.11a.26.26,0,0,1-.25-.22l-4.5-32.77a.25.25,0,0,1,.5-.07l4.5,32.77a.24.24,0,0,1-.21.28Z"
              fill="#422c4f"/>
        <path d="M623.62,284.24h0l-47.71-6a.25.25,0,0,1-.22-.28.24.24,0,0,1,.28-.22l47.71,6a.25.25,0,0,1,.22.27A.26.26,0,0,1,623.62,284.24Z"
              fill="#422c4f"/>
        <path d="M620.88,251.14a.26.26,0,0,1-.25-.21.25.25,0,0,1,.2-.29,19.28,19.28,0,0,0,8.63-3.84.25.25,0,1,1,.31.39,19.87,19.87,0,0,1-8.85,3.94Z"
              fill="#422c4f"/>
        <path d="M476.2,395.46l2.16-9.1,6.15-15.15-16.68-6.77-3.35,8.25a14.18,14.18,0,0,1-8.16,7.93,18.61,18.61,0,0,1,.87,7.11Z"
              fill="#f2c9ad"/>
        <path d="M457.19,387.73a18.61,18.61,0,0,0-.87-7.11,15.08,15.08,0,0,1-1.91.58l-1.56.34a14.08,14.08,0,0,1-6.06,0l-2.53-.54a14.18,14.18,0,0,0-14.07,5l44,17.88,2-8.44Z"
              fill="#e68799"/>
        <polygon points="467.83 364.44 484.51 371.21 482.16 377 467.08 366.29 467.83 364.44" fill="#422c4f"/>
        <polygon points="462.2 362.73 494.75 297.25 520.58 310.52 500.17 379.5 462.2 362.73" fill="#4893d8"/>
        <path d="M625.67,304.27l-98.14-28.59A24,24,0,0,0,499.33,288l-4.58,9.21,72,37h31.71a27,27,0,0,0,27-25.52Z"
              fill="#4893d8"/>
        <path d="M595.43,295.71h-.07l-63.75-18.58a.24.24,0,0,1-.17-.31.26.26,0,0,1,.31-.17l63.75,18.58a.25.25,0,0,1-.07.49Z"
              fill="#422c4f"/>
        <path d="M625.67,304.52h-.07l-19.91-5.8a.25.25,0,0,1-.17-.31.24.24,0,0,1,.31-.17l19.91,5.8a.24.24,0,0,1,.17.31A.26.26,0,0,1,625.67,304.52Z"
              fill="#422c4f"/>
        <path d="M516.13,308.24l-11.29,2.05a21,21,0,0,0-17.22,19.55L483.5,407.5h44.75l-6.5-70,45-3.25Z" fill="#4893d8"/>
        <path d="M512.83,308.84s32.39,27,32.36,27l21.56-1.56-50.62-26Z" fill="#377fb5"/>
        <path d="M488.94,323.78l-.09,0a.25.25,0,0,1-.14-.32A21.35,21.35,0,0,1,504.8,310L516.09,308a.26.26,0,0,1,.29.2.27.27,0,0,1-.2.3l-11.29,2a20.87,20.87,0,0,0-15.71,13.09A.28.28,0,0,1,488.94,323.78Z"
              fill="#422c4f"/>
        <path d="M521.75,337.75a.25.25,0,0,1,0-.5l36.74-2.65a.24.24,0,0,1,.27.23.26.26,0,0,1-.23.27l-36.74,2.65Z"
              fill="#422c4f"/>
        <path d="M484.93,380.87h0a.25.25,0,0,1-.23-.27l2.46-46.36a.24.24,0,0,1,.25-.24h0a.25.25,0,0,1,.24.26l-2.46,46.37A.26.26,0,0,1,484.93,380.87Z"
              fill="#422c4f"/>
        <path d="M524.83,371a.25.25,0,0,1-.24-.22l-4-43.49a.25.25,0,0,1,.22-.27.24.24,0,0,1,.28.22l4,43.49a.23.23,0,0,1-.22.27Z"
              fill="#422c4f"/>
        <path d="M512.93,433.09l-1.43-9.24V407.5h-18v8.9a14.17,14.17,0,0,1-4.58,10.42,18.5,18.5,0,0,1,3.48,6.27Z"
              fill="#f2c9ad"/>
        <path d="M492.4,433.09a18.5,18.5,0,0,0-3.48-6.27,14.45,14.45,0,0,1-1.55,1.26l-1.32.91a14.28,14.28,0,0,1-5.6,2.3l-2.55.44a14.19,14.19,0,0,0-11.15,9.94h47.5l-1.32-8.58Z"
              fill="#e68799"/>
        <polygon points="493.5 407.5 511.5 407.5 511.5 413.75 493.5 409.5 493.5 407.5" fill="#422c4f"/>
        <polygon points="658.46 352.46 663.38 352.46 664.69 364.25 659.46 361.42 658.46 352.46" fill="#422c4f"/>
        <polygon points="664.69 364.25 673.04 439.13 668.13 439.13 659.46 361.42 664.69 364.25" fill="#99a3b0"/>
        <polygon points="626.85 362.94 635.35 439.13 630.43 439.13 621.62 360.11 626.85 362.94" fill="#99a3b0"/>
        <polygon points="620.76 352.46 625.68 352.46 626.85 362.94 621.62 360.11 620.76 352.46" fill="#422c4f"/>
        <polygon points="610.83 352.46 615.75 352.46 614.55 363.21 609.91 360.71 610.83 352.46" fill="#422c4f"/>
        <polygon points="601.16 439.13 609.91 360.71 614.55 363.21 606.08 439.13 601.16 439.13" fill="#99a3b0"/>
        <polygon points="570.27 352.46 575.18 352.46 574.07 362.49 569.43 359.99 570.27 352.46" fill="#422c4f"/>
        <polygon points="560.6 439.13 569.43 359.99 574.07 362.49 565.52 439.13 560.6 439.13" fill="#99a3b0"/>
        <path d="M691.58,207.76V200h-16.8A41.52,41.52,0,0,0,634,233.46L617.26,318.8a16,16,0,0,1-15.7,12.91H580.07a20.75,20.75,0,0,0-20.75,20.75h93.3a23,23,0,0,0,22.57-18.56l21.18-107.7A21.87,21.87,0,0,0,691.58,207.76Z"
              fill="#797c99"/>
        <path d="M692,333.9l21.19-107.7A22,22,0,0,0,691.58,200h0a41.52,41.52,0,0,0-40.74,33.5L631.09,333.9a23,23,0,0,1-22.57,18.56h60.9A23,23,0,0,0,692,333.9Z"
              fill="#495375"/>
    </g>
</svg>